<svg width="128" height="128" xmlns="http://www.w3.org/2000/svg" viewBox="0 0 128 128"><clipPath id="c"><circle cx="64" cy="64" r="62"/></clipPath><defs><radialGradient id="g" cx=".35" cy=".30" r=".9"><stop offset="0" stop-color="#5a8a9f"/><stop offset="1" stop-color="#2a4a5a"/></radialGradient></defs><circle cx="64" cy="64" r="62" fill="url(#g)" stroke="#0a0a0a" stroke-width="2"/><g clip-path="url(#c)" fill="#a5cadb" stroke="#0a0a0a" stroke-width="2" stroke-linejoin="round" stroke-linecap="round">
<!-- feather hat -->
<path d="M28 40l36-16 36 16-8 8H36z" fill="#5a2a6a"/>
<path d="M98 28l14-14c2 6-2 16-10 20z" fill="#d87a9a"/>
<!-- face -->
<ellipse cx="64" cy="56" rx="15" ry="12" fill="#f0d0a8"/>
<circle cx="58" cy="54" r="2" fill="#0a0a0a"/>
<circle cx="70" cy="54" r="2" fill="#0a0a0a"/>
<path d="M58 62c3 3 9 3 12 0" fill="none" stroke="#0a0a0a" stroke-width="1.5"/>
<!-- shoulders -->
<path d="M28 110c0-18 16-28 36-28s36 10 36 28z" fill="#7a3a8a"/>
<!-- lute note -->
<circle cx="104" cy="92" r="4" fill="#ffe89a"/>
<path d="M108 92v-16h-12v4h8v10" fill="none" stroke="#ffe89a" stroke-width="2"/>
</g></svg>