<svg width="128" height="128" xmlns="http://www.w3.org/2000/svg" viewBox="0 0 128 128"><clipPath id="c"><circle cx="64" cy="64" r="62"/></clipPath><defs><radialGradient id="g" cx=".35" cy=".30" r=".9"><stop offset="0" stop-color="#5a8a9f"/><stop offset="1" stop-color="#2a4a5a"/></radialGradient></defs><circle cx="64" cy="64" r="62" fill="url(#g)" stroke="#0a0a0a" stroke-width="2"/><g clip-path="url(#c)" fill="#a5cadb" stroke="#0a0a0a" stroke-width="2" stroke-linejoin="round" stroke-linecap="round">
<path d="M44 38c0-12 10-20 20-20s20 8 20 20v10H44z"/>
<rect x="56" y="46" width="16" height="8"/>
<path d="M44 52h40v10H44z" fill="#6b4a1a"/>
<!-- sword -->
<path d="M92 26l6-6 4 4-6 6z" fill="#d8d8e0"/>
<rect x="78" y="40" width="24" height="4" transform="rotate(-45 90 42)" fill="#d8d8e0"/>
<rect x="72" y="56" width="8" height="2" transform="rotate(-45 76 57)" fill="#2a2018"/>
<!-- shoulders -->
<path d="M28 110c0-18 16-28 36-28s36 10 36 28z" fill="#5a8a9f"/>
</g></svg>