<svg width="128" height="128" xmlns="http://www.w3.org/2000/svg" viewBox="0 0 128 128"><clipPath id="c"><circle cx="64" cy="64" r="62"/></clipPath><defs><radialGradient id="g" cx=".35" cy=".30" r=".9"><stop offset="0" stop-color="#8b2020"/><stop offset="1" stop-color="#3e0d0d"/></radialGradient></defs><circle cx="64" cy="64" r="62" fill="url(#g)" stroke="#0a0a0a" stroke-width="2"/><g clip-path="url(#c)" fill="#d07070" stroke="#0a0a0a" stroke-width="2" stroke-linejoin="round" stroke-linecap="round">
<path d="M64 20c-18 0-28 14-28 30 0 12 6 22 16 28h24c10-6 16-16 16-28 0-16-10-30-28-30z" fill="#6a9a3a"/>
<!-- pointed ears -->
<path d="M36 40l-14-6 6 18z" fill="#6a9a3a"/>
<path d="M92 40l14-6-6 18z" fill="#6a9a3a"/>
<!-- eyes -->
<path d="M48 48l12 2-2 6z" fill="#ffe89a"/>
<path d="M80 48l-12 2 2 6z" fill="#ffe89a"/>
<circle cx="54" cy="50" r="2" fill="#0a0a0a"/>
<circle cx="74" cy="50" r="2" fill="#0a0a0a"/>
<!-- fangs grin -->
<path d="M50 68l4 6 4-4 4 6 4-4 4 6 4-4 4 4" fill="none" stroke="#e8e8e8" stroke-width="2"/>
</g></svg>