<svg width="128" height="128" xmlns="http://www.w3.org/2000/svg" viewBox="0 0 128 128"><clipPath id="c"><circle cx="64" cy="64" r="62"/></clipPath><defs><radialGradient id="g" cx=".35" cy=".30" r=".9"><stop offset="0" stop-color="#8b2020"/><stop offset="1" stop-color="#3e0d0d"/></radialGradient></defs><circle cx="64" cy="64" r="62" fill="url(#g)" stroke="#0a0a0a" stroke-width="2"/><g clip-path="url(#c)" fill="#d07070" stroke="#0a0a0a" stroke-width="2" stroke-linejoin="round" stroke-linecap="round">
<path d="M64 14c-22 0-32 18-32 36 0 10 4 20 12 28h40c8-8 12-18 12-28 0-18-10-36-32-36z" fill="#4a6a4a"/>
<!-- brow scar -->
<path d="M44 40l40 0" stroke="#2a2a2a" stroke-width="3"/>
<path d="M56 34l10 10" stroke="#8a2a2a" stroke-width="2"/>
<!-- eyes -->
<circle cx="50" cy="52" r="3" fill="#ffe89a"/>
<circle cx="78" cy="52" r="3" fill="#ffe89a"/>
<circle cx="50" cy="52" r="1.5" fill="#0a0a0a"/>
<circle cx="78" cy="52" r="1.5" fill="#0a0a0a"/>
<!-- tusks -->
<path d="M54 72l-2 10 6-2z" fill="#f0e6c4"/>
<path d="M74 72l2 10-6-2z" fill="#f0e6c4"/>
<!-- mouth -->
<path d="M56 70h16v4h-16z" fill="#2a1a1a"/>
</g></svg>