<svg width="128" height="128" xmlns="http://www.w3.org/2000/svg" viewBox="0 0 128 128"><clipPath id="c"><circle cx="64" cy="64" r="62"/></clipPath><defs><radialGradient id="g" cx=".35" cy=".30" r=".9"><stop offset="0" stop-color="#5a8a9f"/><stop offset="1" stop-color="#2a4a5a"/></radialGradient></defs><circle cx="64" cy="64" r="62" fill="url(#g)" stroke="#0a0a0a" stroke-width="2"/><g clip-path="url(#c)" fill="#a5cadb" stroke="#0a0a0a" stroke-width="2" stroke-linejoin="round" stroke-linecap="round">
<path d="M64 14c-20 0-32 16-32 34v6h64v-6c0-18-12-34-32-34z" fill="#2a4a2a"/>
<ellipse cx="64" cy="52" rx="14" ry="10" fill="#e0b888"/>
<circle cx="58" cy="50" r="2" fill="#0a0a0a"/>
<circle cx="70" cy="50" r="2" fill="#0a0a0a"/>
<path d="M28 110c0-18 16-28 36-28s36 10 36 28z" fill="#3c5c3c"/>
<!-- bow -->
<path d="M100 32c8 14 8 30 0 44" fill="none" stroke="#8a6a3a" stroke-width="4"/>
<line x1="100" y1="32" x2="100" y2="76" stroke="#e0d0a0" stroke-width="1.5"/>
</g></svg>