<svg width="128" height="128" xmlns="http://www.w3.org/2000/svg" viewBox="0 0 128 128"><clipPath id="c"><circle cx="64" cy="64" r="62"/></clipPath><defs><radialGradient id="g" cx=".35" cy=".30" r=".9"><stop offset="0" stop-color="#5a8a9f"/><stop offset="1" stop-color="#2a4a5a"/></radialGradient></defs><circle cx="64" cy="64" r="62" fill="url(#g)" stroke="#0a0a0a" stroke-width="2"/><g clip-path="url(#c)" fill="#a5cadb" stroke="#0a0a0a" stroke-width="2" stroke-linejoin="round" stroke-linecap="round">
<path d="M64 14c-22 0-34 18-34 36v6h68v-6c0-18-12-36-34-36z" fill="#1a1a1a"/>
<ellipse cx="64" cy="50" rx="14" ry="10" fill="#2a2018" opacity=".4"/>
<rect x="52" y="46" width="8" height="4" fill="#5fcfcf"/>
<rect x="68" y="46" width="8" height="4" fill="#5fcfcf"/>
<path d="M28 110c0-18 16-28 36-28s36 10 36 28z" fill="#1a1a1a"/>
<!-- crossed daggers -->
<path d="M24 28l10 10-4 4-10-10z" fill="#d8d8e0"/>
<path d="M104 28l-10 10 4 4 10-10z" fill="#d8d8e0"/>
</g></svg>