<svg width="128" height="128" xmlns="http://www.w3.org/2000/svg" viewBox="0 0 128 128"><clipPath id="c"><circle cx="64" cy="64" r="62"/></clipPath><defs><radialGradient id="g" cx=".35" cy=".30" r=".9"><stop offset="0" stop-color="#8b2020"/><stop offset="1" stop-color="#3e0d0d"/></radialGradient></defs><circle cx="64" cy="64" r="62" fill="url(#g)" stroke="#0a0a0a" stroke-width="2"/><g clip-path="url(#c)" fill="#d07070" stroke="#0a0a0a" stroke-width="2" stroke-linejoin="round" stroke-linecap="round">
<!-- skull -->
<path d="M64 18c-22 0-34 16-34 34 0 10 4 18 10 24v10h16v-6h16v6h16V76c6-6 10-14 10-24 0-18-12-34-34-34z" fill="#e8e2d0"/>
<!-- eye sockets -->
<ellipse cx="48" cy="52" rx="8" ry="10" fill="#0a0a0a"/>
<ellipse cx="80" cy="52" rx="8" ry="10" fill="#0a0a0a"/>
<circle cx="48" cy="54" r="2" fill="#ff5a3a"/>
<circle cx="80" cy="54" r="2" fill="#ff5a3a"/>
<!-- nose -->
<path d="M62 66l4-6 4 6z" fill="#0a0a0a"/>
<!-- teeth -->
<rect x="46" y="78" width="36" height="8" fill="#f0ead8"/>
<line x1="54" y1="78" x2="54" y2="86" stroke="#0a0a0a" stroke-width="1"/>
<line x1="60" y1="78" x2="60" y2="86" stroke="#0a0a0a" stroke-width="1"/>
<line x1="64" y1="78" x2="64" y2="86" stroke="#0a0a0a" stroke-width="1"/>
<line x1="68" y1="78" x2="68" y2="86" stroke="#0a0a0a" stroke-width="1"/>
<line x1="74" y1="78" x2="74" y2="86" stroke="#0a0a0a" stroke-width="1"/>
</g></svg>