<svg width="128" height="128" xmlns="http://www.w3.org/2000/svg" viewBox="0 0 128 128"><clipPath id="c"><circle cx="64" cy="64" r="62"/></clipPath><defs><radialGradient id="g" cx=".35" cy=".30" r=".9"><stop offset="0" stop-color="#5a8a9f"/><stop offset="1" stop-color="#2a4a5a"/></radialGradient></defs><circle cx="64" cy="64" r="62" fill="url(#g)" stroke="#0a0a0a" stroke-width="2"/><g clip-path="url(#c)" fill="#a5cadb" stroke="#0a0a0a" stroke-width="2" stroke-linejoin="round" stroke-linecap="round">
<!-- hood -->
<path d="M64 12c-24 0-36 20-36 40v8h72v-8c0-20-12-40-36-40z" fill="#253850"/>
<!-- face -->
<ellipse cx="64" cy="48" rx="14" ry="12" fill="#f0d0a8"/>
<circle cx="58" cy="46" r="2" fill="#0a0a0a"/>
<circle cx="70" cy="46" r="2" fill="#0a0a0a"/>
<!-- beard -->
<path d="M50 54c0 14 6 22 14 22s14-8 14-22c-4 4-10 4-14 4s-10 0-14-4z" fill="#e0e0e8"/>
<!-- robe shoulders -->
<path d="M28 110c0-18 16-28 36-28s36 10 36 28z" fill="#253850"/>
<!-- star -->
<path d="M100 24l3 6 6 0-5 4 2 6-6-4-6 4 2-6-5-4 6 0z" fill="#ffe89a"/>
</g></svg>